<?xml version="1.0" standalone="no"?>
<!DOCTYPE svg PUBLIC "-//W3C//DTD SVG 20010904//EN"
 "http://www.w3.org/TR/2001/REC-SVG-20010904/DTD/svg10.dtd">
<svg version="1.0" xmlns="http://www.w3.org/2000/svg"
 width="401.000000pt" height="400.000000pt" viewBox="0 0 401.000000 400.000000"
 preserveAspectRatio="xMidYMid meet">

<g transform="translate(0.000000,400.000000) scale(0.100000,-0.100000)"
fill="#000000" stroke="none">
<path d="M0 2000 l0 -2000 2005 0 2005 0 0 2000 0 2000 -2005 0 -2005 0 0
-2000z m160 1975 c7 -9 15 -13 18 -11 2 3 16 -4 30 -14 35 -28 46 -25 39 10
-6 29 -6 30 33 30 34 0 41 -4 46 -25 3 -14 10 -25 14 -25 4 0 5 11 2 25 -4 25
-3 25 61 25 l66 0 3 -32 c4 -44 33 -46 33 -3 l1 30 74 3 c73 2 75 2 88 -25 6
-15 12 -33 12 -40 0 -7 4 -13 9 -13 4 0 6 -11 3 -25 -2 -14 -8 -22 -13 -19 -5
3 -9 -2 -9 -11 0 -9 4 -13 10 -10 7 4 7 -3 0 -20 -13 -34 -13 -35 4 -35 8 0
18 -9 21 -20 3 -11 11 -20 16 -20 5 0 9 -4 9 -9 0 -5 -11 -8 -25 -6 -28 3 -34
-10 -7 -18 9 -2 24 -8 32 -11 12 -5 16 -1 15 16 0 13 -4 29 -9 37 -6 10 -6 12
3 7 9 -6 12 19 9 108 l-3 116 148 0 c91 0 147 -4 147 -10 0 -5 5 -10 11 -10 5
0 7 5 4 10 -3 6 -1 10 4 10 6 0 11 -7 11 -15 0 -8 6 -15 14 -15 8 0 23 -3 33
-7 17 -6 17 -5 -1 15 l-19 22 158 0 c149 0 159 -1 176 -22 l19 -21 0 21 0 22
915 0 915 0 0 -59 c0 -33 4 -62 9 -66 10 -5 33 27 30 42 -5 28 3 83 11 83 6 0
8 -16 5 -38 -4 -30 -1 -39 11 -39 8 0 29 18 47 39 20 25 40 38 55 38 19 0 22
-3 13 -13 -6 -8 -8 -17 -4 -20 3 -4 -1 -7 -10 -7 -8 0 -32 -16 -53 -35 -20
-19 -42 -35 -47 -35 -6 0 -21 -10 -34 -22 -19 -18 -23 -32 -23 -86 0 -63 0
-64 25 -58 18 5 25 2 25 -8 0 -10 -6 -13 -15 -9 -9 3 -22 -2 -29 -12 -17 -24
-13 -145 7 -184 15 -29 14 -31 -4 -31 -18 0 -20 -6 -17 -72 3 -68 5 -73 26
-76 14 -2 33 5 47 18 13 12 28 19 33 16 6 -3 23 1 38 9 16 8 35 15 42 15 8 0
12 21 12 73 0 41 -3 76 -6 80 -4 3 -17 -1 -30 -10 -15 -10 -24 -11 -25 -4 -4
32 -6 36 -17 34 -7 -2 -12 1 -12 6 0 6 9 9 20 8 11 -1 20 -4 20 -7 0 -9 39
-10 44 -1 3 4 6 102 8 219 l2 212 253 0 c196 0 253 -3 253 -12 4 -480 -2
-2114 -8 -2119 -4 -4 -140 -10 -302 -13 -162 -3 -298 -5 -302 -6 -8 0 5 -48
22 -81 7 -13 25 -34 41 -47 16 -13 29 -32 29 -42 0 -10 5 -22 11 -26 8 -4 10
-27 6 -65 -4 -49 -2 -62 20 -93 l24 -36 -20 -26 c-19 -25 -19 -45 2 -72 7 -9
4 -19 -12 -36 -19 -21 -20 -26 -9 -52 22 -51 59 -89 83 -86 24 3 23 15 17
-162 l-2 -50 -34 33 c-19 18 -36 29 -39 24 -11 -19 -40 -140 -40 -167 0 -36
37 -69 67 -62 47 11 132 -59 238 -194 15 -19 28 -30 28 -23 0 6 -7 18 -15 27
-8 8 -15 19 -15 24 0 5 -7 15 -15 22 -8 7 -15 16 -15 21 0 5 54 9 120 9 l120
0 -1 -62 c0 -35 -3 -57 -6 -50 -2 6 -11 12 -19 12 -10 0 -14 -14 -15 -47 -1
-43 -2 -45 -9 -18 l-8 30 -1 -30 c-2 -46 -15 -61 -32 -38 -18 25 -45 42 -33
21 12 -19 50 -69 92 -118 l33 -38 -3 -157 -3 -157 -100 -1 c-102 0 -196 7
-320 23 -38 5 -77 8 -85 7 -8 -1 -40 2 -70 6 -221 29 -540 33 -540 6 0 -5 48
-9 108 -9 155 0 591 -26 601 -36 5 -5 -426 -6 -1464 -4 -450 0 -734 5 -739 10
-7 7 0 10 16 10 15 0 29 3 31 8 3 4 27 7 54 7 26 0 51 4 55 9 7 11 46 17 103
18 22 0 45 4 51 9 10 8 113 4 121 -5 2 -2 21 0 41 6 60 15 165 27 176 20 21
-13 234 -19 288 -9 15 3 30 1 34 -4 3 -5 10 -7 15 -4 5 4 9 1 9 -4 0 -6 11
-11 25 -11 38 0 31 22 -29 87 -40 43 -69 64 -107 78 -39 13 -48 20 -35 25 16
5 16 7 3 19 -29 23 -257 15 -257 -10 0 -28 -174 -33 -208 -6 -9 7 -11 6 -7 -5
7 -18 -96 -64 -281 -127 -169 -56 -227 -80 -240 -97 -6 -8 -26 -17 -45 -20
-19 -4 -289 -8 -601 -11 l-568 -4 0 735 c0 404 4 737 8 740 4 2 8 84 7 180 0
177 2 186 36 186 23 0 36 -67 32 -170 -3 -78 -1 -110 9 -123 13 -17 15 -17 41
7 24 22 27 31 22 60 l-7 34 75 13 75 13 -4 50 c-2 28 -4 110 -5 182 0 72 -4
136 -8 143 -9 15 -66 -6 -185 -68 -44 -23 -83 -41 -88 -41 -4 0 -8 62 -8 137
0 75 2 134 4 132 2 -2 6 -48 9 -103 3 -57 10 -103 17 -110 10 -8 11 -1 6 34
-7 55 -12 298 -5 304 5 5 29 9 47 7 8 -1 12 -21 12 -64 0 -137 12 -247 27
-247 24 0 70 38 77 63 5 20 10 22 41 19 l35 -4 1 48 c3 183 0 336 -5 342 -6 5
-99 -12 -244 -45 -17 -4 -22 -1 -22 16 0 22 16 28 80 33 27 2 35 8 40 27 3 14
12 27 20 29 13 5 13 3 1 -12 -17 -20 -3 -40 21 -31 21 8 28 39 18 74 -4 16 -4
44 1 62 l9 34 -5 -38 c-3 -30 -1 -38 9 -34 9 4 16 -5 20 -24 4 -20 11 -29 25
-29 26 0 34 15 16 30 -10 8 -11 18 -5 36 10 25 4 54 -11 54 -5 0 -9 5 -9 10 0
6 6 10 14 10 13 0 14 41 7 223 l-1 27 -125 0 -125 0 0 24 c0 13 5 26 11 28 6
2 7 12 1 27 -5 14 -5 44 0 70 4 25 6 52 4 60 -5 15 -9 145 -7 184 1 9 5 17 9
17 5 0 9 -26 9 -57 1 -32 4 -95 8 -140 6 -77 15 -98 30 -73 11 18 25 0 25 -32
0 -23 -5 -31 -22 -36 -20 -5 -19 -7 12 -13 19 -4 39 -4 44 1 16 16 9 206 -9
244 -15 32 -15 36 0 60 10 14 22 26 27 26 14 0 38 -26 31 -34 -12 -11 -10
-123 2 -146 l12 -23 21 21 c11 11 23 17 27 14 4 -4 3 6 -1 22 -4 18 -2 31 5
35 6 4 9 15 5 24 -3 9 -10 15 -14 12 -4 -3 -4 12 1 33 5 20 9 53 9 73 l0 36
-120 28 c-112 26 -120 29 -120 51 0 28 9 29 76 10 27 -8 75 -17 107 -20 52 -6
57 -5 57 14 0 11 -7 20 -15 20 -19 0 -19 7 -1 26 12 12 14 44 11 169 -4 156
-7 175 -28 175 -7 0 -57 22 -112 49 l-100 50 66 0 c48 1 70 -3 79 -14z m3293
-77 c-1 -24 2 -62 7 -86 9 -48 -17 -174 -31 -151 -4 7 -5 17 -3 21 3 5 7 30 8
56 2 26 1 41 -1 34 -3 -6 -9 -10 -14 -6 -5 3 -9 0 -9 -7 0 -7 -3 -9 -7 -6 -3
4 -12 2 -20 -4 -9 -8 -13 -8 -13 -1 0 6 5 14 11 18 8 5 8 9 -1 14 -7 4 -9 13
-5 19 5 9 10 9 21 0 23 -19 45 17 43 71 -2 59 -1 70 9 70 4 0 6 -19 5 -42z
m-61 -43 c-5 -18 -11 -25 -16 -17 -4 6 -2 21 4 33 15 28 21 20 12 -16z m-3272
-253 c0 -79 -17 -73 -20 8 -3 68 -2 73 10 65 6 -3 10 -36 10 -73z m-64 -7 c7
-30 -2 -59 -16 -50 -13 8 -13 75 0 75 5 0 12 -11 16 -25z m3321 -7 c-3 -8 -6
-5 -6 6 -1 11 2 17 5 13 3 -3 4 -12 1 -19z m20 -54 c-3 -3 -12 -4 -19 -1 -8 3
-5 6 6 6 11 1 17 -2 13 -5z m-27 -45 c0 -11 -4 -18 -10 -14 -5 3 -7 12 -3 20
7 21 13 19 13 -6z m7 -91 c-2 -13 -4 -5 -4 17 -1 22 1 32 4 23 2 -10 2 -28 0
-40z m-3277 -102 c0 -8 -4 -18 -10 -21 -5 -3 -10 3 -10 14 0 12 5 21 10 21 6
0 10 -6 10 -14z m-33 -738 c-3 -8 -6 -5 -6 6 -1 11 2 17 5 13 3 -3 4 -12 1
-19z m210 -310 c-3 -8 -6 -5 -6 6 -1 11 2 17 5 13 3 -3 4 -12 1 -19z m3559
-1163 c42 -8 79 -14 82 -14 4 1 22 1 40 0 l32 -1 0 -126 0 -125 -55 30 c-62
34 -139 90 -205 149 -40 37 -44 43 -32 61 6 12 12 28 12 37 0 12 6 15 25 10
13 -3 59 -13 101 -21z m131 -572 c-3 -10 -5 -4 -5 12 0 17 2 24 5 18 2 -7 2
-21 0 -30z m-2657 -483 c0 -5 -9 -10 -20 -10 -11 0 -20 5 -20 10 0 6 9 10 20
10 11 0 20 -4 20 -10z"/>
<path d="M1220 3950 c0 -5 5 -10 11 -10 5 0 7 5 4 10 -3 6 -8 10 -11 10 -2 0
-4 -4 -4 -10z"/>
<path d="M785 3921 c8 -16 23 -32 34 -36 10 -3 29 -14 41 -25 22 -19 52 -17
44 3 -6 15 -109 87 -124 87 -6 0 -5 -11 5 -29z"/>
<path d="M330 3911 c0 -11 5 -23 10 -26 6 -4 10 5 10 19 0 14 -4 26 -10 26 -5
0 -10 -9 -10 -19z"/>
<path d="M1260 3880 c0 -16 5 -30 10 -30 6 0 15 -11 20 -25 l9 -25 35 23 36
22 -37 33 c-47 42 -73 43 -73 2z"/>
<path d="M1483 3898 c-20 -26 -21 -56 -1 -77 22 -24 38 -27 38 -7 0 8 5 16 11
18 16 5 -4 72 -23 76 -8 2 -19 -3 -25 -10z"/>
<path d="M1180 3890 c0 -5 7 -10 16 -10 8 0 12 5 9 10 -3 6 -10 10 -16 10 -5
0 -9 -4 -9 -10z"/>
<path d="M2205 3869 c-4 -6 -5 -12 -2 -15 2 -3 7 2 10 11 7 17 1 20 -8 4z"/>
<path d="M795 3827 c-11 -85 -13 -117 -8 -135 4 -18 88 -72 110 -72 11 0 17
147 8 173 -4 9 -29 30 -55 46 l-49 30 -6 -42z"/>
<path d="M282 3813 c3 -35 8 -40 58 -66 51 -26 74 -51 63 -69 -2 -5 2 -8 11
-8 11 0 15 -18 16 -92 2 -146 3 -152 23 -156 17 -3 18 6 15 132 -3 117 -1 136
12 134 11 -2 16 -19 18 -63 3 -80 14 -102 22 -45 3 25 2 50 -3 57 -5 7 -3 21
7 35 36 51 25 64 -100 123 -65 30 -123 55 -131 55 -10 0 -13 -10 -11 -37z"/>
<path d="M949 3822 c0 -4 0 -56 1 -117 1 -107 1 -111 28 -132 15 -13 39 -23
53 -23 26 0 27 2 28 61 1 60 9 87 18 62 9 -24 31 -13 35 17 5 35 -7 50 -39 50
-16 0 -23 6 -23 20 0 14 -15 27 -50 44 -27 13 -50 21 -51 18z m51 -57 c0 -8
-4 -15 -10 -15 -5 0 -10 7 -10 15 0 8 5 15 10 15 6 0 10 -7 10 -15z"/>
<path d="M1610 3816 c0 -8 5 -18 10 -21 6 -3 10 3 10 14 0 12 -4 21 -10 21 -5
0 -10 -6 -10 -14z"/>
<path d="M3230 3774 c0 -8 5 -12 10 -9 6 3 10 10 10 16 0 5 -4 9 -10 9 -5 0
-10 -7 -10 -16z"/>
<path d="M574 3707 c-3 -8 -4 -28 -2 -43 2 -24 9 -30 43 -38 22 -5 45 -15 50
-22 6 -7 27 -17 48 -22 l37 -10 0 37 c0 37 -1 38 -72 70 -40 18 -79 35 -85 38
-7 3 -15 -2 -19 -10z"/>
<path d="M1475 3689 c-4 -6 1 -16 11 -24 23 -16 28 -13 19 14 -7 23 -20 27
-30 10z"/>
<path d="M1290 3671 c0 -5 7 -14 15 -21 8 -7 15 -26 15 -41 0 -22 -6 -32 -25
-39 -22 -8 -25 -15 -23 -56 1 -35 6 -48 19 -51 9 -3 19 -13 22 -24 6 -24 27
-25 28 -1 8 217 7 230 -15 236 -29 8 -36 7 -36 -3z"/>
<path d="M1195 3650 c-3 -5 -2 -10 4 -10 5 0 13 5 16 10 3 6 2 10 -4 10 -5 0
-13 -4 -16 -10z"/>
<path d="M3227 3633 c-3 -5 -2 -15 2 -22 7 -10 10 -10 16 -1 4 6 3 16 -3 22
-5 5 -12 6 -15 1z"/>
<path d="M786 3593 c4 -16 8 -71 9 -123 1 -52 5 -105 9 -116 7 -23 54 -39 70
-24 6 6 15 2 22 -8 16 -20 16 -17 14 88 -1 83 -7 100 -31 100 -13 0 -18 4 -13
12 5 8 2 9 -10 5 -10 -4 -15 -3 -11 3 3 6 -4 10 -16 10 -12 0 -20 3 -17 6 9 9
78 -7 72 -17 -9 -15 13 -10 26 6 16 20 7 31 -50 60 -67 34 -84 33 -74 -2z"/>
<path d="M401 3584 c0 -11 3 -14 6 -6 3 7 2 16 -1 19 -3 4 -6 -2 -5 -13z"/>
<path d="M952 3534 c3 -18 15 -26 66 -42 50 -16 42 12 -11 37 -52 25 -59 26
-55 5z"/>
<path d="M522 3495 c0 -16 2 -22 5 -12 2 9 2 23 0 30 -3 6 -5 -1 -5 -18z"/>
<path d="M3230 3491 c0 -12 5 -21 10 -21 6 0 10 6 10 14 0 8 -4 18 -10 21 -5
3 -10 -3 -10 -14z"/>
<path d="M1075 3479 c-21 -34 41 -97 68 -70 24 24 16 48 -19 64 -41 20 -41 20
-49 6z"/>
<path d="M725 3470 c-3 -5 -1 -10 4 -10 6 0 11 5 11 10 0 6 -2 10 -4 10 -3 0
-8 -4 -11 -10z"/>
<path d="M1190 3430 c0 -5 5 -10 10 -10 6 0 10 5 10 10 0 6 -4 10 -10 10 -5 0
-10 -4 -10 -10z"/>
<path d="M3230 3405 c0 -8 4 -15 10 -15 5 0 7 7 4 15 -4 8 -8 15 -10 15 -2 0
-4 -7 -4 -15z"/>
<path d="M296 3384 c-13 -33 -6 -66 14 -71 17 -5 20 -14 20 -63 0 -31 3 -98 6
-148 l7 -92 53 0 54 0 2 53 c1 28 1 87 0 130 -2 74 7 97 24 60 11 -26 11 -37
1 -50 -4 -6 -7 -24 -5 -40 3 -24 7 -28 32 -26 38 3 41 7 25 45 -10 24 -10 33
-1 36 7 2 10 7 8 10 -2 4 0 31 3 60 5 34 4 56 -3 61 -12 10 -187 51 -216 51
-10 0 -21 -7 -24 -16z m99 -323 c3 -5 1 -12 -5 -16 -5 -3 -10 1 -10 9 0 18 6
21 15 7z"/>
<path d="M3449 3343 c-1 -5 -1 -11 -1 -14 1 -3 -11 -4 -26 -2 -15 2 -54 -4
-87 -14 l-60 -19 -5 -59 c-4 -40 -1 -69 7 -87 16 -31 0 -78 -26 -78 -14 -1
-13 -3 2 -14 10 -8 17 -23 16 -33 -4 -29 10 -61 31 -68 19 -6 50 -90 50 -137
0 -35 22 -60 56 -64 77 -11 69 -35 71 216 1 124 4 248 8 275 6 62 -2 105 -21
105 -8 0 -15 -3 -15 -7z m-5 -108 c1 -36 -3 -65 -7 -65 -4 0 -7 32 -6 70 2 87
12 84 13 -5z m-46 -96 c2 -21 1 -22 -8 -6 -6 9 -23 17 -38 18 l-27 1 25 8 c35
11 45 7 48 -21z m-18 -219 c0 -5 -2 -10 -4 -10 -3 0 -8 5 -11 10 -3 6 -1 10 4
10 6 0 11 -4 11 -10z"/>
<path d="M580 3307 c0 -48 21 -73 48 -58 38 20 60 14 73 -24 14 -38 34 -46 43
-17 5 17 9 67 7 88 -1 11 -122 44 -157 44 -9 0 -14 -12 -14 -33z"/>
<path d="M796 3155 c1 -75 6 -141 12 -147 5 -5 31 -8 58 -6 l49 3 1 128 0 129
-25 10 c-14 6 -42 12 -62 15 l-35 5 2 -137z m81 69 c-3 -3 -12 -4 -19 -1 -8 3
-5 6 6 6 11 1 17 -2 13 -5z"/>
<path d="M950 3241 c0 -5 3 -17 6 -26 5 -13 9 -14 15 -4 6 10 16 10 43 2 32
-10 36 -9 36 7 0 10 -10 20 -22 24 -34 9 -78 7 -78 -3z"/>
<path d="M301 3220 c0 -8 4 -22 9 -30 12 -18 12 -2 0 25 -6 13 -9 15 -9 5z"/>
<path d="M1082 3198 c4 -39 32 -51 41 -17 7 25 -8 49 -30 49 -10 0 -13 -9 -11
-32z"/>
<path d="M724 3166 c-8 -21 3 -49 16 -41 10 6 9 40 -3 51 -4 4 -9 -1 -13 -10z"/>
<path d="M312 3140 c0 -19 2 -27 5 -17 2 9 2 25 0 35 -3 9 -5 1 -5 -18z"/>
<path d="M220 3121 c0 -24 3 -28 20 -24 11 3 20 8 20 12 0 4 -9 14 -20 24 -19
16 -20 16 -20 -12z"/>
<path d="M603 3110 c0 -26 4 -39 11 -37 6 2 11 9 10 15 -1 7 -2 23 -2 37 -3
41 -19 28 -19 -15z"/>
<path d="M3236 3115 c4 -8 10 -15 15 -15 5 0 9 7 9 15 0 8 -7 15 -15 15 -9 0
-12 -6 -9 -15z"/>
<path d="M973 3065 c0 -33 2 -45 4 -27 2 18 2 45 0 60 -2 15 -4 0 -4 -33z"/>
<path d="M2947 3052 c-7 -36 9 -156 27 -207 17 -46 20 -81 7 -90 -5 -3 -8 -19
-6 -35 2 -17 0 -30 -4 -30 -5 0 -8 -36 -8 -80 1 -63 4 -80 16 -83 13 -4 13 -5
-1 -6 -10 0 -18 -5 -18 -9 0 -13 35 -42 49 -42 8 0 11 -6 6 -17 -12 -32 -10
-36 15 -44 14 -4 21 -7 17 -8 -11 -1 23 -36 37 -37 6 -1 18 -2 26 -3 13 -1 13
-2 0 -11 -9 -6 -10 -10 -3 -10 7 0 16 6 20 13 4 6 17 17 28 23 28 16 40 101
18 126 -15 17 -15 19 0 36 21 24 21 51 0 81 -29 42 -107 205 -109 231 -2 14
-6 36 -10 50 -4 14 -6 32 -5 41 2 21 -46 106 -65 113 -8 3 -12 10 -9 16 3 5 0
10 -8 10 -8 0 -17 -13 -20 -28z"/>
<path d="M236 3035 c4 -8 10 -12 15 -9 11 6 2 24 -11 24 -5 0 -7 -7 -4 -15z"/>
<path d="M320 2958 c-34 -12 -24 -110 10 -101 17 5 19 -3 18 -96 0 -56 -4
-101 -9 -101 -5 0 -9 8 -9 18 -1 16 -1 16 -11 -1 -13 -23 -2 -39 22 -32 11 4
19 3 18 -2 -1 -4 -1 -20 0 -35 1 -25 5 -28 36 -28 19 0 35 4 35 8 0 5 10 14
23 20 l22 11 -22 0 c-27 1 -31 32 -8 51 9 7 13 20 10 27 -3 8 2 22 11 31 15
15 16 15 10 -5 -4 -13 -1 -25 9 -33 12 -10 15 -9 16 6 1 11 1 24 0 31 -1 6 12
17 29 24 22 11 28 18 24 33 -7 22 -6 144 1 156 3 4 -1 13 -9 19 -14 12 -192
11 -226 -1z m170 -85 c0 -4 -7 -33 -16 -65 -18 -62 -33 -76 -35 -30 -1 15 -2
38 -3 52 -1 19 3 24 17 22 10 -2 17 3 17 13 0 8 5 15 10 15 6 0 10 -3 10 -7z"/>
<path d="M590 2926 l0 -44 68 1 c66 2 67 2 63 -23 -9 -54 -6 -75 11 -78 21 -4
26 14 30 108 l3 75 -87 3 -88 3 0 -45z"/>
<path d="M799 2963 c-5 -29 4 -279 10 -285 13 -15 51 23 61 63 10 34 13 59 19
132 0 9 7 17 15 17 15 0 32 53 22 68 -7 11 -126 15 -127 5z"/>
<path d="M956 2963 c-11 -11 -6 -23 8 -23 8 0 17 4 20 9 7 10 -19 23 -28 14z"/>
<path d="M1178 2938 c-35 -33 -41 -52 -43 -158 -2 -82 -9 -112 -45 -218 -23
-68 -39 -131 -35 -140 3 -10 6 -19 6 -22 1 -3 5 -10 10 -16 5 -6 7 -18 4 -27
-4 -8 -1 -33 5 -55 8 -30 19 -45 42 -56 35 -18 68 -21 68 -7 0 6 17 26 38 45
20 20 31 36 25 36 -7 0 -13 9 -13 20 0 11 5 20 11 20 5 0 8 -4 4 -9 -3 -5 -1
-12 5 -16 5 -3 10 3 10 15 0 13 4 19 12 14 8 -5 9 0 4 17 -4 13 -10 59 -13
102 -4 59 -9 77 -21 77 -11 0 -13 7 -9 29 4 18 -1 41 -14 65 -16 31 -18 43 -9
76 18 66 15 178 -6 213 -10 18 -12 18 -36 -5z"/>
<path d="M2477 2875 c-21 -7 -40 -15 -41 -17 -40 -52 -45 -86 -24 -163 10 -36
10 -50 0 -65 -18 -29 -16 -37 29 -79 56 -56 171 -97 130 -47 -14 17 -8 22 42
31 49 10 54 20 20 50 -20 17 -23 24 -12 25 9 0 21 16 29 40 16 47 36 63 61 47
13 -8 22 -7 34 3 15 12 13 15 -23 29 -22 9 -59 35 -82 59 -26 26 -51 42 -65
42 -18 0 -23 4 -19 15 4 8 1 15 -6 15 -10 0 -10 3 0 15 10 13 9 15 -11 15 -13
-1 -41 -7 -62 -15z"/>
<path d="M317 2788 c-3 -18 -1 -37 4 -42 5 -6 9 7 9 32 0 50 -6 54 -13 10z"/>
<path d="M1757 2797 c-4 -12 -13 -13 -44 -4 -54 14 -105 2 -139 -33 -16 -16
-33 -30 -37 -30 -5 0 -15 -7 -24 -15 -18 -19 -10 -45 14 -45 10 -1 35 -23 57
-51 35 -46 41 -50 70 -43 41 9 79 29 112 59 14 13 30 22 35 19 5 -3 9 4 9 15
0 12 -4 21 -10 21 -5 0 -10 15 -10 34 0 19 -4 38 -10 41 -15 9 -12 26 4 23 8
-2 16 2 18 7 5 16 -39 18 -45 2z m8 -77 c3 -5 1 -10 -4 -10 -6 0 -11 5 -11 10
0 6 2 10 4 10 3 0 8 -4 11 -10z"/>
<path d="M3394 2704 c3 -9 6 -18 6 -20 0 -2 5 -4 10 -4 6 0 10 9 10 20 0 12
-7 20 -16 20 -11 0 -14 -5 -10 -16z"/>
<path d="M3450 2680 c0 -5 5 -10 11 -10 5 0 7 5 4 10 -3 6 -8 10 -11 10 -2 0
-4 -4 -4 -10z"/>
<path d="M805 2641 c-3 -5 -4 -59 -3 -120 1 -113 5 -123 44 -117 25 4 31 58 9
80 -20 20 -29 127 -11 139 8 5 7 10 -4 17 -19 12 -27 12 -35 1z"/>
<path d="M665 2614 c-53 -13 -74 -26 -75 -46 0 -12 62 -38 94 -39 17 0 25 -3
19 -6 -7 -2 -13 -13 -13 -24 0 -11 5 -16 14 -13 12 5 30 -40 29 -73 0 -7 8
-13 18 -13 14 0 19 8 20 33 1 17 3 61 4 97 2 36 5 72 7 80 4 21 -42 22 -117 4z"/>
<path d="M1795 2619 c-5 -7 -10 -21 -10 -31 -1 -10 -14 -27 -28 -38 -15 -12
-27 -28 -27 -36 0 -8 -5 -14 -12 -14 -6 0 -9 -2 -6 -5 3 -4 32 3 64 15 32 11
69 20 81 20 16 0 23 6 23 20 0 11 -5 20 -10 20 -6 0 -23 14 -39 32 -22 25 -30
28 -36 17z"/>
<path d="M415 2552 l-100 -27 -3 -37 c-2 -28 2 -42 17 -55 17 -14 21 -30 22
-83 1 -36 5 -78 9 -95 7 -29 9 -28 23 15 3 8 6 2 6 -13 1 -16 8 -35 16 -43 17
-18 20 -34 5 -34 -5 0 -10 -4 -10 -9 0 -6 11 -6 28 0 l29 10 -4 142 c-4 129
-3 140 12 123 16 -22 16 -20 20 -119 1 -37 7 -73 14 -80 8 -8 11 -8 11 2 0 10
10 12 35 8 40 -7 44 4 20 49 -19 36 -19 73 -1 80 8 3 12 13 9 22 -2 9 -5 51
-6 92 -2 72 -3 75 -27 77 -14 1 -70 -10 -125 -25z m-33 -204 c4 -38 2 -48 -9
-48 -10 0 -13 6 -9 16 3 9 6 32 6 51 0 49 6 39 12 -19z m188 -73 c0 -5 -4 -4
-9 3 -4 8 -12 12 -17 10 -5 -1 -10 8 -12 22 l-3 25 20 -25 c11 -14 21 -29 21
-35z"/>
<path d="M3432 2510 c13 -21 38 -27 38 -10 0 6 -7 10 -16 10 -8 0 -12 5 -9 10
3 6 -1 10 -9 10 -14 0 -14 -3 -4 -20z"/>
<path d="M604 2423 c3 -32 5 -82 5 -110 1 -29 5 -53 10 -53 14 0 20 101 9 163
-6 31 -14 57 -19 57 -5 0 -7 -26 -5 -57z"/>
<path d="M692 2445 c0 -16 2 -22 5 -12 2 9 2 23 0 30 -3 6 -5 -1 -5 -18z"/>
<path d="M3365 2393 c-11 -2 -27 -7 -35 -10 -8 -3 -18 -6 -21 -5 -4 1 -14 -7
-23 -17 -16 -18 -16 -21 3 -59 18 -36 24 -40 68 -45 26 -3 50 -4 51 -2 2 2 6
29 9 60 5 51 -6 87 -26 84 -3 -1 -15 -3 -26 -6z"/>
<path d="M810 2360 c0 -5 6 -10 14 -10 8 0 18 5 21 10 3 6 -3 10 -14 10 -12 0
-21 -4 -21 -10z"/>
<path d="M865 2343 c-27 -14 -53 -30 -56 -35 -4 -6 -4 -29 -2 -52 3 -24 0 -52
-6 -64 -6 -11 -7 -23 -2 -26 4 -3 9 -34 10 -68 2 -77 12 -90 46 -58 26 24 26
25 20 147 -6 101 -4 123 7 123 20 0 38 -21 38 -44 0 -14 3 -17 8 -9 11 18 9
106 -3 109 -5 2 -32 -9 -60 -23z"/>
<path d="M2185 2307 c-22 -12 -21 -12 -82 -22 -28 -5 -43 -4 -43 3 0 12 -57
-1 -72 -16 -11 -11 1 -44 13 -36 5 3 9 -13 9 -35 0 -23 3 -41 8 -41 4 0 6 -18
4 -40 -2 -22 -8 -38 -12 -35 -5 3 -6 -4 -3 -14 3 -11 -2 -30 -11 -43 -9 -12
-16 -32 -16 -44 0 -25 -58 -57 -102 -57 -38 0 -55 -40 -28 -67 21 -21 27 -50
11 -50 -16 0 -23 -40 -10 -56 7 -9 20 -12 33 -9 15 5 17 4 7 -3 -18 -13 -5
-32 22 -32 12 0 40 -9 61 -21 21 -11 44 -18 52 -15 23 9 72 -23 83 -54 8 -25
7 -30 -5 -30 -8 0 -13 -4 -9 -9 3 -6 -10 -17 -29 -26 -34 -16 -53 -52 -37 -68
5 -5 15 1 23 12 13 19 18 19 49 8 19 -6 37 -17 41 -24 5 -6 17 -9 28 -6 11 3
20 0 20 -6 0 -6 5 -11 11 -11 8 0 7 5 -1 15 -20 24 -4 29 52 16 34 -7 55 -8
62 -1 6 6 14 6 22 -1 8 -7 14 -2 18 17 4 14 10 24 13 21 3 -4 17 3 31 13 13
11 33 20 43 20 12 0 19 7 19 20 0 11 7 20 15 20 15 0 18 16 15 80 -1 23 6 42
19 57 15 16 20 31 17 55 -3 18 -5 33 -6 33 -1 0 -3 8 -5 18 -6 32 14 72 46 91
16 10 28 23 26 29 -5 17 -52 20 -79 6 -31 -17 -69 -20 -85 -7 -7 5 -20 7 -29
4 -23 -9 -54 22 -54 54 0 14 -5 31 -12 38 -8 8 -8 15 2 27 8 10 14 51 16 110
l3 94 -32 9 c-57 18 -111 21 -132 9z m45 -427 c10 0 22 -5 26 -11 4 -8 9 -7
15 2 10 17 56 22 65 7 4 -6 -1 -17 -10 -24 -12 -8 -16 -20 -12 -32 5 -15 2
-20 -11 -18 -13 1 -19 -7 -21 -26 -4 -30 -19 -37 -28 -14 -6 15 -44 10 -44 -5
0 -5 -13 -9 -28 -9 -16 0 -32 -3 -36 -7 -4 -4 -27 -6 -53 -4 -38 2 -45 0 -40
-13 4 -9 2 -16 -4 -16 -6 0 -13 8 -16 18 -8 28 -92 85 -126 84 -22 -1 -27 2
-18 11 16 16 14 27 -4 21 -27 -11 -16 5 15 21 17 9 30 13 30 10 0 -3 9 -1 21
5 14 8 24 8 33 1 7 -6 31 -9 54 -7 26 2 42 -1 42 -8 0 -6 4 -5 9 3 8 13 12 13
26 1 14 -11 18 -11 25 -1 4 8 19 14 34 14 14 0 26 5 27 11 0 7 2 6 6 -1 2 -7
13 -13 23 -13z m-200 -190 c0 -5 -7 -10 -15 -10 -8 0 -15 5 -15 10 0 6 7 10
15 10 8 0 15 -4 15 -10z m210 -90 c0 -5 8 -10 18 -11 9 0 12 -3 6 -5 -6 -3
-24 2 -40 11 -26 13 -27 15 -6 15 12 0 22 -4 22 -10z"/>
<path d="M683 2257 c-58 -28 -83 -45 -83 -58 0 -24 8 -27 63 -30 26 -2 48 -8
48 -13 5 -32 4 -53 -4 -69 -10 -21 10 -127 24 -127 5 0 12 13 15 30 4 16 10
28 14 25 19 -12 27 30 28 147 0 88 -3 128 -11 131 -7 2 -49 -14 -94 -36z m87
-173 c0 -8 -4 -12 -10 -9 -5 3 -10 13 -10 21 0 8 5 12 10 9 6 -3 10 -13 10
-21z"/>
<path d="M500 2174 c-14 -7 -56 -28 -95 -47 l-70 -33 -1 -89 c-1 -50 2 -94 6
-100 4 -5 7 -33 6 -62 -2 -53 10 -110 15 -68 1 11 1 67 -1 124 -1 73 1 101 9
97 6 -4 11 -15 12 -24 0 -14 2 -14 8 2 4 11 18 20 30 21 20 2 22 -2 20 -39 -1
-23 2 -49 6 -59 4 -10 5 -21 2 -24 -4 -3 -1 -15 5 -27 7 -11 11 -29 9 -40 -2
-11 2 -17 11 -14 10 4 12 35 11 141 -2 115 0 137 12 137 15 0 21 -63 16 -147
-3 -39 8 -61 19 -42 6 9 12 10 22 1 31 -25 38 1 36 138 -1 81 -6 138 -13 142
-6 5 -2 8 8 8 10 0 15 5 12 10 -9 14 -65 11 -95 -6z"/>
<path d="M610 2065 c0 -45 -4 -65 -12 -65 -9 0 -8 -3 2 -10 8 -5 15 -17 16
-27 3 -59 7 -64 14 -18 9 59 1 185 -11 185 -5 0 -9 -29 -9 -65z"/>
<path d="M2596 2048 c-20 -40 -20 -48 2 -48 11 0 25 14 35 34 14 31 14 35 1
40 -22 8 -21 9 -38 -26z"/>
<path d="M1681 2032 c-11 -20 18 -62 43 -62 13 0 13 6 -5 40 -12 22 -23 40
-25 40 -2 0 -8 -8 -13 -18z"/>
<path d="M1398 1993 c6 -2 18 -2 25 0 6 3 1 5 -13 5 -14 0 -19 -2 -12 -5z"/>
<path d="M1750 1940 c-21 -13 1 -33 31 -28 32 4 39 38 7 38 -13 0 -30 -5 -38
-10z"/>
<path d="M516 1845 c-3 -9 0 -15 9 -15 16 0 20 16 6 24 -5 3 -11 -1 -15 -9z"/>
<path d="M353 1743 c-18 -7 -16 -23 2 -23 8 0 15 7 15 15 0 8 -1 15 -2 14 -2
0 -9 -3 -15 -6z"/>
<path d="M2275 1450 c4 -6 11 -8 16 -5 14 9 11 15 -7 15 -8 0 -12 -5 -9 -10z"/>
<path d="M2480 1174 c-52 -41 -103 -85 -113 -96 -16 -19 -16 -23 -2 -38 21
-24 20 -28 -30 -81 -25 -26 -45 -54 -45 -62 0 -8 -9 -26 -21 -41 l-20 -26 35
-17 35 -16 51 51 c28 29 57 52 64 52 25 0 96 60 96 80 0 11 -5 20 -11 20 -6 0
-17 7 -25 15 -17 17 -8 42 31 85 51 55 87 150 58 150 -4 0 -51 -34 -103 -76z"/>
<path d="M2690 1079 c0 -11 5 -17 10 -14 6 3 10 13 10 21 0 8 -4 14 -10 14 -5
0 -10 -9 -10 -21z"/>
<path d="M2128 1050 c2 -16 8 -30 13 -30 5 0 9 14 9 30 0 18 -5 30 -13 30 -9
0 -12 -10 -9 -30z"/>
<path d="M2093 1003 l6 -38 -42 1 c-23 0 -53 7 -67 14 -40 21 -91 21 -121 -1
-20 -14 -29 -16 -32 -7 -4 9 -6 7 -6 -3 -1 -17 57 -51 71 -43 4 3 8 13 8 22 1
10 6 4 14 -13 27 -61 53 -71 186 -76 54 -2 63 1 90 26 17 16 30 35 30 42 0 7
5 13 11 13 5 0 8 4 4 10 -3 5 -21 7 -41 5 -25 -4 -36 -1 -40 10 -4 8 -10 12
-15 9 -5 -3 -16 11 -26 30 -22 47 -37 46 -30 -1z m-143 -47 c0 -3 -4 -8 -10
-11 -5 -3 -10 -1 -10 4 0 6 5 11 10 11 6 0 10 -2 10 -4z"/>
<path d="M830 986 c-10 -13 -10 -16 1 -17 8 0 4 -4 -8 -9 -18 -7 -21 -15 -18
-42 3 -18 7 -77 11 -130 l6 -98 99 0 c78 0 99 3 99 14 0 7 -16 21 -35 30 -19
9 -36 20 -36 24 -1 4 -3 17 -4 30 -1 13 -7 28 -14 35 -6 6 -11 30 -11 53 0 25
-6 47 -15 54 -9 7 -14 24 -13 39 3 21 -2 27 -23 29 -14 2 -31 -4 -39 -12z"/>
<path d="M3410 858 c-6 -7 -19 -23 -29 -35 -10 -12 -30 -27 -46 -33 -20 -7
-25 -14 -18 -21 11 -11 53 8 53 23 0 5 11 8 24 8 25 0 56 32 56 57 0 17 -26
17 -40 1z"/>
<path d="M2094 769 c-18 -20 -18 -21 6 -39 22 -17 25 -17 37 -2 7 10 13 27 13
40 0 29 -30 30 -56 1z"/>
<path d="M1125 750 c3 -5 10 -10 16 -10 5 0 9 5 9 10 0 6 -7 10 -16 10 -8 0
-12 -4 -9 -10z"/>
<path d="M1100 701 c-46 -9 -59 -18 -57 -39 1 -19 36 -22 94 -7 30 7 61 31 52
39 -11 9 -58 12 -89 7z"/>
<path d="M3175 677 c-10 -8 -14 -19 -9 -30 8 -21 24 -22 24 -2 0 8 7 15 15 15
8 0 15 4 15 9 0 15 -27 20 -45 8z"/>
<path d="M1292 590 c7 -10 14 -18 15 -16 6 6 -9 36 -18 36 -5 0 -4 -9 3 -20z"/>
<path d="M3820 563 c0 -15 29 -49 30 -35 0 7 -7 20 -15 28 -8 9 -15 11 -15 7z"/>
<path d="M1350 537 c0 -8 7 -17 15 -21 8 -3 15 -2 15 3 0 5 -7 14 -15 21 -12
10 -15 10 -15 -3z"/>
<path d="M2910 495 c0 -8 -6 -15 -14 -15 -8 0 -18 -4 -21 -10 -3 -6 1 -7 12
-4 10 3 2 -4 -17 -15 -19 -11 -30 -21 -25 -22 6 0 -1 -5 -15 -9 l-25 -8 26 -1
c14 -1 30 4 37 11 7 7 12 9 12 4 0 -4 7 -1 15 8 8 8 15 19 15 25 0 6 7 11 15
11 17 0 18 2 9 24 -8 20 -24 21 -24 1z"/>
<path d="M2825 470 c-3 -5 1 -10 10 -10 9 0 13 5 10 10 -3 6 -8 10 -10 10 -2
0 -7 -4 -10 -10z"/>
<path d="M2740 370 c0 -5 6 -10 14 -10 8 0 18 5 21 10 3 6 -3 10 -14 10 -12 0
-21 -4 -21 -10z"/>
<path d="M2805 119 c-10 -15 1 -23 20 -15 9 3 13 10 10 16 -8 13 -22 13 -30
-1z"/>
<path d="M2710 100 c0 -5 15 -10 33 -9 27 0 29 2 12 9 -28 12 -45 12 -45 0z"/>
<path d="M2642 59 c2 -7 10 -15 17 -17 8 -3 12 1 9 9 -2 7 -10 15 -17 17 -8 3
-12 -1 -9 -9z"/>
<path d="M2820 60 c0 -5 7 -10 15 -10 8 0 15 5 15 10 0 6 -7 10 -15 10 -8 0
-15 -4 -15 -10z"/>
</g>
</svg>
